<svg width="712.32412109375px" height="122px" xmlns="http://www.w3.org/2000/svg" viewBox="-106.16206054687501 14 712.32412109375 122" style="background: rgba(0, 0, 0, 0);" preserveAspectRatio="xMidYMid"><defs><linearGradient id="editing-shiny-gradient" x1="0.04322727117869957" x2="0.9567727288213004" y1="0.2966316784620999" y2="0.7033683215379001" gradientUnits="objectBoundingBox"><stop offset="0.0" stop-color="#ffb200"></stop><stop offset="0.5" stop-color="#e10057"></stop><stop offset="1.0" stop-color="#5A1A80"></stop></linearGradient><linearGradient id="editing-shiny-gradient2" x1="0" x2="0" y1="0" y2="1"><stop offset="0.2" stop-color="#fff" stop-opacity="0.8"></stop><stop offset="0.8" stop-color="#fff" stop-opacity="0"></stop></linearGradient><filter id="editing-shiny2" x="-100%" y="-100%" width="300%" height="300%"><feMorphology operator="erode" radius="2"></feMorphology></filter><filter id="editing-shiny" x="-100%" y="-100%" width="300%" height="300%"><feFlood flood-color="#fff" result="flood"></feFlood><feConvolveMatrix in="SourceGraphic" result="conv" order="8,8" divisor="1" kernelMatrix="0 0 0 0 0 0 0 0 0 0 0 1 1 0 0 0 0 0 0 1 1 0 0 0 0 0 1 0 0 1 0 0 0 0 1 0 0 1 0 0 0 1 0 0 0 0 1 0 0 1 1 0 0 1 1 0 0 0 0 1 1 0 0 0 "></feConvolveMatrix><feOffset dx="0" dy="4" in="conv" result="offset"></feOffset><feComposite operator="in" in="flood" in2="offset" result="comp"></feComposite><feGaussianBlur in="offset" stdDeviation="3" result="shadow"></feGaussianBlur><feColorMatrix in="shadow" type="matrix" values="0.7 0 0 0 0  0 0.7 0 0 0  0 0 0.7 0 0  0 0 0 0.3 0" result="dark-shadow"></feColorMatrix><feOffset dx="0" dy="4" in="dark-shadow" result="offset-shadow"></feOffset><feOffset dx="0" dy="2" in="conv" result="offset-2"></feOffset><feComposite operator="out" in="offset" in2="offset-2" result="edge-diff"></feComposite><feGaussianBlur in="edge-diff" stdDeviation="1" result="edge-blur"></feGaussianBlur><feColorMatrix in="edge-blur" result="edge-shadow" type="matrix" values="0 0 0 0 0  0 0 0 0 0  0 0 0 0 0  0 0 0 0.5 0"></feColorMatrix><feComposite operator="in" in="edge-shadow" in2="offset" result="edge-shadow-in"></feComposite><feOffset dx="0" dy="1" in="edge-shadow-in" result="edge-shadow-final"></feOffset><feMerge result="out"><feMergeNode in="offset-shadow"></feMergeNode><feMergeNode in="comp"></feMergeNode><feMergeNode in="edge-shadow-final"></feMergeNode><feMergeNode in="SourceGraphic"></feMergeNode></feMerge></filter></defs><g filter="url(#editing-shiny)"><g transform="translate(-4.498827338218689, 104.44000053405762)"><path d="M26.05-29.57L26.05-29.57L26.05-29.57Q27.01-31.49 27.01-33.28L27.01-33.28L27.01-33.28Q27.01-35.07 26.82-36.06L26.82-36.06L26.82-36.06Q26.62-37.06 26.18-37.82L26.18-37.82L26.18-37.82Q25.22-39.49 23.30-39.49L23.30-39.49L23.30-39.49Q20.93-39.49 19.01-37.76L19.01-37.76L19.01-37.76Q16.96-35.97 16.96-33.15L16.96-33.15L16.96-33.15Q16.96-31.36 18.21-29.98L18.21-29.98L18.21-29.98Q19.46-28.61 21.38-27.33L21.38-27.33L21.38-27.33Q23.30-26.05 25.47-24.77L25.47-24.77L25.47-24.77Q27.65-23.49 29.57-21.95L29.57-21.95L29.57-21.95Q33.98-18.43 33.98-13.70L33.98-13.70L33.98-13.70Q33.98-10.50 32.29-7.78L32.29-7.78L32.29-7.78Q30.59-5.06 27.78-3.07L27.78-3.07L27.78-3.07Q21.63 1.28 13.50 1.28L13.50 1.28L13.50 1.28Q6.91 1.28 3.52-0.86L3.52-0.86L3.52-0.86Q0.13-3.01 0.13-6.27L0.13-6.27L0.13-6.27Q0.13-12.10 4.67-13.57L4.67-13.57L4.67-13.57Q5.95-14.02 7.90-14.02L7.90-14.02L7.90-14.02Q9.86-14.02 12.10-13.18L12.10-13.18L12.10-13.18Q11.07-10.56 11.07-8.19L11.07-8.19L11.07-8.19Q11.07-3.07 14.72-3.07L14.72-3.07L14.72-3.07Q17.09-3.07 19.04-4.80L19.04-4.80L19.04-4.80Q20.99-6.53 20.99-8.48L20.99-8.48L20.99-8.48Q20.99-10.43 19.74-11.84L19.74-11.84L19.74-11.84Q18.50-13.25 16.64-14.37L16.64-14.37L16.64-14.37Q14.78-15.49 12.64-16.58L12.64-16.58L12.64-16.58Q10.50-17.66 8.64-19.20L8.64-19.20L8.64-19.20Q4.29-22.72 4.29-28.35L4.29-28.35L4.29-28.35Q4.29-32 6.08-34.85L6.08-34.85L6.08-34.85Q7.87-37.70 10.75-39.62L10.75-39.62L10.75-39.62Q16.51-43.52 23.58-43.52L23.58-43.52L23.58-43.52Q30.66-43.52 34.08-41.41L34.08-41.41L34.08-41.41Q37.50-39.30 37.50-35.71L37.50-35.71L37.50-35.71Q37.50-32.58 35.07-30.59L35.07-30.59L35.07-30.59Q32.96-28.93 30.40-28.93L30.40-28.93L30.40-28.93Q27.84-28.93 26.05-29.57ZM39.87-6.40L39.87-6.40L39.87-6.40Q39.87-8.13 40.77-12.48L40.77-12.48L44.16-29.76L40.38-29.76L40.64-31.68L40.64-31.68Q48.32-33.98 55.74-39.62L55.74-39.62L58.82-39.62L57.28-32.64L62.27-32.64L61.70-29.76L56.77-29.76L53.50-12.48L53.50-12.48Q52.67-8.51 52.67-7.17L52.67-7.17L52.67-7.17Q52.67-4.10 55.36-3.46L55.36-3.46L55.36-3.46Q54.72-1.28 52.42 0L52.42 0L52.42 0Q50.11 1.28 46.85 1.28L46.85 1.28L46.85 1.28Q43.58 1.28 41.73-0.77L41.73-0.77L41.73-0.77Q39.87-2.82 39.87-6.40ZM82.50-2.69L82.50-2.69L82.50-2.69Q79.42 1.28 71.81 1.28L71.81 1.28L71.81 1.28Q67.84 1.28 64.96-1.12L64.96-1.12L64.96-1.12Q62.08-3.52 62.08-6.98L62.08-6.98L62.08-6.98Q62.08-8.90 62.27-9.86L62.27-9.86L66.56-32.64L79.55-33.92L74.88-9.22L74.88-9.22Q74.62-7.81 74.62-6.98L74.62-6.98L74.62-6.98Q74.62-3.26 76.86-3.26L76.86-3.26L76.86-3.26Q79.36-3.26 81.15-6.66L81.15-6.66L81.15-6.66Q81.73-7.74 81.98-9.15L81.98-9.15L86.53-32.64L99.14-33.92L94.40-8.96L94.40-8.96Q94.21-8 94.21-6.98L94.21-6.98L94.21-6.98Q94.21-5.95 94.78-4.83L94.78-4.83L94.78-4.83Q95.36-3.71 97.22-3.46L97.22-3.46L97.22-3.46Q96.83-1.92 95.49-0.90L95.49-0.90L95.49-0.90Q92.67 1.28 89.63 1.28L89.63 1.28L89.63 1.28Q86.59 1.28 84.80 0.19L84.80 0.19L84.80 0.19Q83.01-0.90 82.50-2.69ZM122.50-33.92L122.50-33.92L122.50-33.92Q124.80-33.92 126.59-33.41L126.59-33.41L126.59-33.41Q126.66-33.66 126.78-34.37L126.78-34.37L127.10-36.35L127.10-36.35Q127.36-37.63 127.74-39.74L127.74-39.74L128.77-44.80L141.50-46.08L134.40-8.96L134.40-8.96Q134.34-8.58 134.34-7.94L134.34-7.94L134.34-6.91L134.34-6.91Q134.34-5.50 135.04-4.45L135.04-4.45L135.04-4.45Q135.74-3.39 136.90-3.39L136.90-3.39L136.90-3.39Q135.62-0.38 131.71 0.90L131.71 0.90L131.71 0.90Q130.37 1.28 128.48 1.28L128.48 1.28L128.48 1.28Q126.59 1.28 124.86 0.29L124.86 0.29L124.86 0.29Q123.14-0.70 122.62-2.37L122.62-2.37L122.62-2.37Q121.60-0.70 119.55 0.29L119.55 0.29L119.55 0.29Q117.50 1.28 114.53 1.28L114.53 1.28L114.53 1.28Q111.55 1.28 109.09 0.51L109.09 0.51L109.09 0.51Q106.62-0.26 105.09-1.92L105.09-1.92L105.09-1.92Q102.27-5.18 102.27-12.61L102.27-12.61L102.27-12.61Q102.27-22.21 107.90-28.03L107.90-28.03L107.90-28.03Q113.54-33.92 122.50-33.92ZM122.05-30.08L122.05-30.08L122.05-30.08Q119.68-30.08 118.40-27.52L118.40-27.52L118.40-27.52Q117.12-24.96 115.81-18.62L115.81-18.62L115.81-18.62Q114.50-12.29 114.50-6.59L114.50-6.59L114.50-6.59Q114.50-2.69 116.80-2.69L116.80-2.69L116.80-2.69Q118.85-2.69 120.29-4.74L120.29-4.74L120.29-4.74Q121.73-6.78 122.30-10.18L122.30-10.18L125.76-28.93L125.76-28.93Q124.42-30.08 122.05-30.08ZM168.26-10.82L168.26-10.82L168.26-10.82Q169.86-9.73 169.86-7.33L169.86-7.33L169.86-7.33Q169.86-4.93 168.64-3.39L168.64-3.39L168.64-3.39Q167.42-1.86 165.44-0.83L165.44-0.83L165.44-0.83Q161.34 1.28 156.93 1.28L156.93 1.28L156.93 1.28Q152.51 1.28 149.92 0.32L149.92 0.32L149.92 0.32Q147.33-0.64 145.60-2.43L145.60-2.43L145.60-2.43Q142.21-5.82 142.21-12.03L142.21-12.03L142.21-12.03Q142.21-21.70 147.46-27.58L147.46-27.58L147.46-27.58Q153.09-33.92 162.88-33.92L162.88-33.92L162.88-33.92Q168.96-33.92 171.97-31.36L171.97-31.36L171.97-31.36Q174.21-29.44 174.21-26.30L174.21-26.30L174.21-26.30Q174.21-15.04 154.75-15.04L154.75-15.04L154.75-15.04Q154.50-13.38 154.50-11.97L154.50-11.97L154.50-11.97Q154.50-9.02 155.81-7.90L155.81-7.90L155.81-7.90Q157.12-6.78 159.55-6.78L159.55-6.78L159.55-6.78Q161.98-6.78 164.58-7.90L164.58-7.90L164.58-7.90Q167.17-9.02 168.26-10.82ZM155.20-17.79L155.20-17.79L155.20-17.79Q159.74-17.79 162.37-20.61L162.37-20.61L162.37-20.61Q164.99-23.30 164.99-27.58L164.99-27.58L164.99-27.58Q164.99-29.06 164.45-29.86L164.45-29.86L164.45-29.86Q163.90-30.66 162.82-30.66L162.82-30.66L162.82-30.66Q161.73-30.66 160.80-30.24L160.80-30.24L160.80-30.24Q159.87-29.82 158.91-28.42L158.91-28.42L158.91-28.42Q156.54-25.22 155.20-17.79ZM203.46 1.28L203.46 1.28L203.46 1.28Q195.71 1.28 195.71-4.74L195.71-4.74L195.71-4.74Q195.78-6.40 196.29-9.22L196.29-9.22L197.44-15.10L197.44-15.10Q199.17-23.42 199.17-25.28L199.17-25.28L199.17-25.28Q199.17-28.99 196.99-28.99L196.99-28.99L196.99-28.99Q193.34-28.99 191.42-19.46L191.42-19.46L187.65 0L174.78 1.28L181.44-32.70L191.94-33.92L190.91-27.65L190.91-27.65Q193.92-33.92 203.14-33.92L203.14-33.92L203.14-33.92Q207.62-33.92 209.50-32.03L209.50-32.03L209.50-32.03Q211.39-30.14 211.39-25.92L211.39-25.92L211.39-25.92Q211.39-21.95 209.34-12.67L209.34-12.67L209.34-12.67Q208.38-8.51 208.38-6.94L208.38-6.94L208.38-6.94Q208.38-5.38 209.25-4.48L209.25-4.48L209.25-4.48Q210.11-3.58 211.39-3.46L211.39-3.46L211.39-3.46Q210.75-1.28 208.54 0L208.54 0L208.54 0Q206.34 1.28 203.46 1.28ZM217.54-6.40L217.54-6.40L217.54-6.40Q217.54-8.13 218.43-12.48L218.43-12.48L221.82-29.76L218.05-29.76L218.30-31.68L218.30-31.68Q225.98-33.98 233.41-39.62L233.41-39.62L236.48-39.62L234.94-32.64L239.94-32.64L239.36-29.76L234.43-29.76L231.17-12.48L231.17-12.48Q230.34-8.51 230.34-7.17L230.34-7.17L230.34-7.17Q230.34-4.10 233.02-3.46L233.02-3.46L233.02-3.46Q232.38-1.28 230.08 0L230.08 0L230.08 0Q227.78 1.28 224.51 1.28L224.51 1.28L224.51 1.28Q221.25 1.28 219.39-0.77L219.39-0.77L219.39-0.77Q217.54-2.82 217.54-6.40ZM277.76-29.57L277.76-29.57L277.76-29.57Q278.72-31.49 278.72-33.28L278.72-33.28L278.72-33.28Q278.72-35.07 278.53-36.06L278.53-36.06L278.53-36.06Q278.34-37.06 277.89-37.82L277.89-37.82L277.89-37.82Q276.93-39.49 275.01-39.49L275.01-39.49L275.01-39.49Q272.64-39.49 270.72-37.76L270.72-37.76L270.72-37.76Q268.67-35.97 268.67-33.15L268.67-33.15L268.67-33.15Q268.67-31.36 269.92-29.98L269.92-29.98L269.92-29.98Q271.17-28.61 273.09-27.33L273.09-27.33L273.09-27.33Q275.01-26.05 277.18-24.77L277.18-24.77L277.18-24.77Q279.36-23.49 281.28-21.95L281.28-21.95L281.28-21.95Q285.70-18.43 285.70-13.70L285.70-13.70L285.70-13.70Q285.70-10.50 284.00-7.78L284.00-7.78L284.00-7.78Q282.30-5.06 279.49-3.07L279.49-3.07L279.49-3.07Q273.34 1.28 265.22 1.28L265.22 1.28L265.22 1.28Q258.62 1.28 255.23-0.86L255.23-0.86L255.23-0.86Q251.84-3.01 251.84-6.27L251.84-6.27L251.84-6.27Q251.84-12.10 256.38-13.57L256.38-13.57L256.38-13.57Q257.66-14.02 259.62-14.02L259.62-14.02L259.62-14.02Q261.57-14.02 263.81-13.18L263.81-13.18L263.81-13.18Q262.78-10.56 262.78-8.19L262.78-8.19L262.78-8.19Q262.78-3.07 266.43-3.07L266.43-3.07L266.43-3.07Q268.80-3.07 270.75-4.80L270.75-4.80L270.75-4.80Q272.70-6.53 272.70-8.48L272.70-8.48L272.70-8.48Q272.70-10.43 271.46-11.84L271.46-11.84L271.46-11.84Q270.21-13.25 268.35-14.37L268.35-14.37L268.35-14.37Q266.50-15.49 264.35-16.58L264.35-16.58L264.35-16.58Q262.21-17.66 260.35-19.20L260.35-19.20L260.35-19.20Q256.00-22.72 256.00-28.35L256.00-28.35L256.00-28.35Q256.00-32 257.79-34.85L257.79-34.85L257.79-34.85Q259.58-37.70 262.46-39.62L262.46-39.62L262.46-39.62Q268.22-43.52 275.30-43.52L275.30-43.52L275.30-43.52Q282.37-43.52 285.79-41.41L285.79-41.41L285.79-41.41Q289.22-39.30 289.22-35.71L289.22-35.71L289.22-35.71Q289.22-32.58 286.78-30.59L286.78-30.59L286.78-30.59Q284.67-28.93 282.11-28.93L282.11-28.93L282.11-28.93Q279.55-28.93 277.76-29.57ZM320.38-4.38L320.38-4.38L320.38-4.38Q317.70-1.66 314.02-0.19L314.02-0.19L314.02-0.19Q310.34 1.28 306.69 1.28L306.69 1.28L306.69 1.28Q303.04 1.28 301.76 0.64L301.76 0.64L299.78 11.52L286.78 12.80L295.62-32.64L306.05-33.73L305.22-29.31L305.22-29.31Q307.90-33.86 313.47-33.86L313.47-33.86L313.47-33.86Q319.74-33.86 323.07-29.82L323.07-29.82L323.07-29.82Q326.02-26.18 326.02-20.61L326.02-20.61L326.02-20.61Q326.02-15.04 324.54-11.07L324.54-11.07L324.54-11.07Q323.07-7.10 320.38-4.38ZM305.92-22.34L302.53-3.58L302.53-3.58Q303.87-2.43 305.54-2.43L305.54-2.43L305.54-2.43Q307.20-2.43 308.16-3.07L308.16-3.07L308.16-3.07Q309.12-3.71 309.82-4.99L309.82-4.99L309.82-4.99Q311.74-8.45 313.28-18.94L313.28-18.94L313.28-18.94Q313.73-22.02 313.73-25.02L313.73-25.02L313.73-25.02Q313.73-28.03 313.06-28.99L313.06-28.99L313.06-28.99Q312.38-29.95 311.10-29.95L311.10-29.95L311.10-29.95Q307.20-29.95 305.92-22.34L305.92-22.34ZM343.81 1.28L343.81 1.28L343.81 1.28Q329.73 1.28 329.73-11.97L329.73-11.97L329.73-11.97Q329.73-21.38 334.91-27.46L334.91-27.46L334.91-27.46Q340.42-33.92 349.95-33.92L349.95-33.92L349.95-33.92Q356.86-33.92 360.38-30.72L360.38-30.72L360.38-30.72Q363.90-27.52 363.90-20.80L363.90-20.80L363.90-20.80Q363.90-10.56 358.40-4.61L358.40-4.61L358.40-4.61Q353.02 1.28 343.81 1.28ZM345.47-26.56L345.47-26.56L345.47-26.56Q344.70-24.83 344.10-22.24L344.10-22.24L344.10-22.24Q343.49-19.65 342.72-15.55L342.72-15.55L342.72-15.55Q341.95-11.46 341.95-6.40L341.95-6.40L341.95-6.40Q341.95-4.74 342.50-3.65L342.50-3.65L342.50-3.65Q343.04-2.56 344.51-2.56L344.51-2.56L344.51-2.56Q345.98-2.56 346.91-3.26L346.91-3.26L346.91-3.26Q347.84-3.97 348.54-5.63L348.54-5.63L348.54-5.63Q349.82-8.58 350.85-14.05L350.85-14.05L350.85-14.05Q351.87-19.52 351.97-21.89L351.97-21.89L351.97-21.89Q352.06-24.26 352.06-26.02L352.06-26.02L352.06-26.02Q352.06-27.78 351.55-28.93L351.55-28.93L351.55-28.93Q351.04-30.08 349.60-30.08L349.60-30.08L349.60-30.08Q348.16-30.08 347.20-29.18L347.20-29.18L347.20-29.18Q346.24-28.29 345.47-26.56ZM394.75 1.28L394.75 1.28L394.75 1.28Q387.01 1.28 387.01-4.74L387.01-4.74L387.01-4.74Q387.07-6.40 387.58-9.22L387.58-9.22L388.74-15.10L388.74-15.10Q390.46-23.42 390.46-25.28L390.46-25.28L390.46-25.28Q390.46-28.99 388.29-28.99L388.29-28.99L388.29-28.99Q384.64-28.99 382.72-19.46L382.72-19.46L378.94 0L366.08 1.28L372.74-32.70L383.23-33.92L382.21-27.65L382.21-27.65Q385.22-33.92 394.43-33.92L394.43-33.92L394.43-33.92Q398.91-33.92 400.80-32.03L400.80-32.03L400.80-32.03Q402.69-30.14 402.69-25.92L402.69-25.92L402.69-25.92Q402.69-21.95 400.64-12.67L400.64-12.67L400.64-12.67Q399.68-8.51 399.68-6.94L399.68-6.94L399.68-6.94Q399.68-5.38 400.54-4.48L400.54-4.48L400.54-4.48Q401.41-3.58 402.69-3.46L402.69-3.46L402.69-3.46Q402.05-1.28 399.84 0L399.84 0L399.84 0Q397.63 1.28 394.75 1.28ZM426.94-22.46L426.94-22.46L426.94-22.46Q427.84-24.83 427.84-26.88L427.84-26.88L427.84-26.88Q427.84-30.66 424.77-30.66L424.77-30.66L424.77-30.66Q423.17-30.66 421.86-29.22L421.86-29.22L421.86-29.22Q420.54-27.78 420.54-25.98L420.54-25.98L420.54-25.98Q420.54-24.70 421.57-23.68L421.57-23.68L421.57-23.68Q423.04-22.27 426.82-19.97L426.82-19.97L426.82-19.97Q430.59-17.66 432.03-15.78L432.03-15.78L432.03-15.78Q433.47-13.89 433.47-11.30L433.47-11.30L433.47-11.30Q433.47-8.70 432.22-6.34L432.22-6.34L432.22-6.34Q430.98-3.97 428.74-2.30L428.74-2.30L428.74-2.30Q423.94 1.28 416.26 1.28L416.26 1.28L416.26 1.28Q412.10 1.28 408.90-0.90L408.90-0.90L408.90-0.90Q405.70-3.01 405.70-5.50L405.70-5.50L405.70-5.50Q405.70-8 407.52-9.47L407.52-9.47L407.52-9.47Q409.34-10.94 412.03-10.94L412.03-10.94L412.03-10.94Q414.72-10.94 416.38-9.92L416.38-9.92L416.38-9.92Q415.55-7.81 415.55-6.40L415.55-6.40L415.55-6.40Q415.55-2.18 419.14-2.18L419.14-2.18L419.14-2.18Q420.67-2.18 421.70-3.14L421.70-3.14L421.70-3.14Q422.72-4.10 422.72-5.76L422.72-5.76L422.72-5.76Q422.72-9.02 417.22-12.48L417.22-12.48L417.22-12.48Q412.74-15.42 411.71-16.58L411.71-16.58L411.71-16.58Q409.98-18.62 409.98-21.18L409.98-21.18L409.98-21.18Q409.98-23.74 411.20-26.18L411.20-26.18L411.20-26.18Q412.42-28.61 414.66-30.34L414.66-30.34L414.66-30.34Q419.33-33.92 427.46-33.92L427.46-33.92L427.46-33.92Q431.62-33.92 434.08-32.26L434.08-32.26L434.08-32.26Q436.54-30.59 436.54-27.78L436.54-27.78L436.54-27.78Q436.54-24.96 434.85-23.36L434.85-23.36L434.85-23.36Q433.15-21.76 430.08-21.76L430.08-21.76L430.08-21.76Q427.97-21.76 426.94-22.46ZM452.86 1.28L452.86 1.28L452.86 1.28Q438.78 1.28 438.78-11.97L438.78-11.97L438.78-11.97Q438.78-21.38 443.97-27.46L443.97-27.46L443.97-27.46Q449.47-33.92 459.01-33.92L459.01-33.92L459.01-33.92Q465.92-33.92 469.44-30.72L469.44-30.72L469.44-30.72Q472.96-27.52 472.96-20.80L472.96-20.80L472.96-20.80Q472.96-10.56 467.46-4.61L467.46-4.61L467.46-4.61Q462.08 1.28 452.86 1.28ZM454.53-26.56L454.53-26.56L454.53-26.56Q453.76-24.83 453.15-22.24L453.15-22.24L453.15-22.24Q452.54-19.65 451.78-15.55L451.78-15.55L451.78-15.55Q451.01-11.46 451.01-6.40L451.01-6.40L451.01-6.40Q451.01-4.74 451.55-3.65L451.55-3.65L451.55-3.65Q452.10-2.56 453.57-2.56L453.57-2.56L453.57-2.56Q455.04-2.56 455.97-3.26L455.97-3.26L455.97-3.26Q456.90-3.97 457.60-5.63L457.60-5.63L457.60-5.63Q458.88-8.58 459.90-14.05L459.90-14.05L459.90-14.05Q460.93-19.52 461.02-21.89L461.02-21.89L461.02-21.89Q461.12-24.26 461.12-26.02L461.12-26.02L461.12-26.02Q461.12-27.78 460.61-28.93L460.61-28.93L460.61-28.93Q460.10-30.08 458.66-30.08L458.66-30.08L458.66-30.08Q457.22-30.08 456.26-29.18L456.26-29.18L456.26-29.18Q455.30-28.29 454.53-26.56ZM496.77-17.98L496.77-17.98L496.77-17.98Q499.07-22.08 499.07-26.24L499.07-26.24L499.07-26.24Q499.07-28.99 497.09-28.99L497.09-28.99L497.09-28.99Q495.55-28.99 493.95-26.37L493.95-26.37L493.95-26.37Q492.29-23.74 491.78-20.35L491.78-20.35L488.45 0L475.20 1.28L481.73-32.64L492.29-33.92L491.14-27.46L491.14-27.46Q494.27-33.92 501.31-33.92L501.31-33.92L501.31-33.92Q505.02-33.92 507.04-32L507.04-32L507.04-32Q509.06-30.08 509.06-26.14L509.06-26.14L509.06-26.14Q509.06-22.21 506.46-19.71L506.46-19.71L506.46-19.71Q503.87-17.22 499.46-17.22L499.46-17.22L499.46-17.22Q497.54-17.22 496.77-17.98Z" fill="url(#editing-shiny-gradient)"></path></g></g><g filter="url(#editing-shiny2)"><g transform="translate(-4.266440272331238, 104.44000816345215)"><path d="M26.05-29.57L26.05-29.57L26.05-29.57Q27.01-31.49 27.01-33.28L27.01-33.28L27.01-33.28Q27.01-35.07 26.82-36.06L26.82-36.06L26.82-36.06Q26.62-37.06 26.18-37.82L26.18-37.82L26.18-37.82Q25.22-39.49 23.30-39.49L23.30-39.49L23.30-39.49Q20.93-39.49 19.01-37.76L19.01-37.76L19.01-37.76Q16.96-35.97 16.96-33.15L16.96-33.15L16.96-33.15Q16.96-31.36 18.21-29.98L18.21-29.98L18.21-29.98Q19.46-28.61 21.38-27.33L21.38-27.33L21.38-27.33Q23.30-26.05 25.47-24.77L25.47-24.77L25.47-24.77Q27.65-23.49 29.57-21.95L29.57-21.95L29.57-21.95Q33.98-18.43 33.98-13.70L33.98-13.70L33.98-13.70Q33.98-10.50 32.29-7.78L32.29-7.78L32.29-7.78Q30.59-5.06 27.78-3.07L27.78-3.07L27.78-3.07Q21.63 1.28 13.50 1.28L13.50 1.28L13.50 1.28Q6.91 1.28 3.52-0.86L3.52-0.86L3.52-0.86Q0.13-3.01 0.13-6.27L0.13-6.27L0.13-6.27Q0.13-12.10 4.67-13.57L4.67-13.57L4.67-13.57Q5.95-14.02 7.90-14.02L7.90-14.02L7.90-14.02Q9.86-14.02 12.10-13.18L12.10-13.18L12.10-13.18Q11.07-10.56 11.07-8.19L11.07-8.19L11.07-8.19Q11.07-3.07 14.72-3.07L14.72-3.07L14.72-3.07Q17.09-3.07 19.04-4.80L19.04-4.80L19.04-4.80Q20.99-6.53 20.99-8.48L20.99-8.48L20.99-8.48Q20.99-10.43 19.74-11.84L19.74-11.84L19.74-11.84Q18.50-13.25 16.64-14.37L16.64-14.37L16.64-14.37Q14.78-15.49 12.64-16.58L12.64-16.58L12.64-16.58Q10.50-17.66 8.64-19.20L8.64-19.20L8.64-19.20Q4.29-22.72 4.29-28.35L4.29-28.35L4.29-28.35Q4.29-32 6.08-34.85L6.08-34.85L6.08-34.85Q7.87-37.70 10.75-39.62L10.75-39.62L10.75-39.62Q16.51-43.52 23.58-43.52L23.58-43.52L23.58-43.52Q30.66-43.52 34.08-41.41L34.08-41.41L34.08-41.41Q37.50-39.30 37.50-35.71L37.50-35.71L37.50-35.71Q37.50-32.58 35.07-30.59L35.07-30.59L35.07-30.59Q32.96-28.93 30.40-28.93L30.40-28.93L30.40-28.93Q27.84-28.93 26.05-29.57ZM39.87-6.40L39.87-6.40L39.87-6.40Q39.87-8.13 40.77-12.48L40.77-12.48L44.16-29.76L40.38-29.76L40.64-31.68L40.64-31.68Q48.32-33.98 55.74-39.62L55.74-39.62L58.82-39.62L57.28-32.64L62.27-32.64L61.70-29.76L56.77-29.76L53.50-12.48L53.50-12.48Q52.67-8.51 52.67-7.17L52.67-7.17L52.67-7.17Q52.67-4.10 55.36-3.46L55.36-3.46L55.36-3.46Q54.72-1.28 52.42 0L52.42 0L52.42 0Q50.11 1.28 46.85 1.28L46.85 1.28L46.85 1.28Q43.58 1.28 41.73-0.77L41.73-0.77L41.73-0.77Q39.87-2.82 39.87-6.40ZM82.50-2.69L82.50-2.69L82.50-2.69Q79.42 1.28 71.81 1.28L71.81 1.28L71.81 1.28Q67.84 1.28 64.96-1.12L64.96-1.12L64.96-1.12Q62.08-3.52 62.08-6.98L62.08-6.98L62.08-6.98Q62.08-8.90 62.27-9.86L62.27-9.86L66.56-32.64L79.55-33.92L74.88-9.22L74.88-9.22Q74.62-7.81 74.62-6.98L74.62-6.98L74.62-6.98Q74.62-3.26 76.86-3.26L76.86-3.26L76.86-3.26Q79.36-3.26 81.15-6.66L81.15-6.66L81.15-6.66Q81.73-7.74 81.98-9.15L81.98-9.15L86.53-32.64L99.14-33.92L94.40-8.96L94.40-8.96Q94.21-8 94.21-6.98L94.21-6.98L94.21-6.98Q94.21-5.95 94.78-4.83L94.78-4.83L94.78-4.83Q95.36-3.71 97.22-3.46L97.22-3.46L97.22-3.46Q96.83-1.92 95.49-0.90L95.49-0.90L95.49-0.90Q92.67 1.28 89.63 1.28L89.63 1.28L89.63 1.28Q86.59 1.28 84.80 0.19L84.80 0.19L84.80 0.19Q83.01-0.90 82.50-2.69ZM122.50-33.92L122.50-33.92L122.50-33.92Q124.80-33.92 126.59-33.41L126.59-33.41L126.59-33.41Q126.66-33.66 126.78-34.37L126.78-34.37L127.10-36.35L127.10-36.35Q127.36-37.63 127.74-39.74L127.74-39.74L128.77-44.80L141.50-46.08L134.40-8.96L134.40-8.96Q134.34-8.58 134.34-7.94L134.34-7.94L134.34-6.91L134.34-6.91Q134.34-5.50 135.04-4.45L135.04-4.45L135.04-4.45Q135.74-3.39 136.90-3.39L136.90-3.39L136.90-3.39Q135.62-0.38 131.71 0.90L131.71 0.90L131.71 0.90Q130.37 1.28 128.48 1.28L128.48 1.28L128.48 1.28Q126.59 1.28 124.86 0.29L124.86 0.29L124.86 0.29Q123.14-0.70 122.62-2.37L122.62-2.37L122.62-2.37Q121.60-0.70 119.55 0.29L119.55 0.29L119.55 0.29Q117.50 1.28 114.53 1.28L114.53 1.28L114.53 1.28Q111.55 1.28 109.09 0.51L109.09 0.51L109.09 0.51Q106.62-0.26 105.09-1.92L105.09-1.92L105.09-1.92Q102.27-5.18 102.27-12.61L102.27-12.61L102.27-12.61Q102.27-22.21 107.90-28.03L107.90-28.03L107.90-28.03Q113.54-33.92 122.50-33.92ZM122.05-30.08L122.05-30.08L122.05-30.08Q119.68-30.08 118.40-27.52L118.40-27.52L118.40-27.52Q117.12-24.96 115.81-18.62L115.81-18.62L115.81-18.62Q114.50-12.29 114.50-6.59L114.50-6.59L114.50-6.59Q114.50-2.69 116.80-2.69L116.80-2.69L116.80-2.69Q118.85-2.69 120.29-4.74L120.29-4.74L120.29-4.74Q121.73-6.78 122.30-10.18L122.30-10.18L125.76-28.93L125.76-28.93Q124.42-30.08 122.05-30.08ZM168.26-10.82L168.26-10.82L168.26-10.82Q169.86-9.73 169.86-7.33L169.86-7.33L169.86-7.33Q169.86-4.93 168.64-3.39L168.64-3.39L168.64-3.39Q167.42-1.86 165.44-0.83L165.44-0.83L165.44-0.83Q161.34 1.28 156.93 1.28L156.93 1.28L156.93 1.28Q152.51 1.28 149.92 0.32L149.92 0.32L149.92 0.32Q147.33-0.64 145.60-2.43L145.60-2.43L145.60-2.43Q142.21-5.82 142.21-12.03L142.21-12.03L142.21-12.03Q142.21-21.70 147.46-27.58L147.46-27.58L147.46-27.58Q153.09-33.92 162.88-33.92L162.88-33.92L162.88-33.92Q168.96-33.92 171.97-31.36L171.97-31.36L171.97-31.36Q174.21-29.44 174.21-26.30L174.21-26.30L174.21-26.30Q174.21-15.04 154.75-15.04L154.75-15.04L154.75-15.04Q154.50-13.38 154.50-11.97L154.50-11.97L154.50-11.97Q154.50-9.02 155.81-7.90L155.81-7.90L155.81-7.90Q157.12-6.78 159.55-6.78L159.55-6.78L159.55-6.78Q161.98-6.78 164.58-7.90L164.58-7.90L164.58-7.90Q167.17-9.02 168.26-10.82ZM155.20-17.79L155.20-17.79L155.20-17.79Q159.74-17.79 162.37-20.61L162.37-20.61L162.37-20.61Q164.99-23.30 164.99-27.58L164.99-27.58L164.99-27.58Q164.99-29.06 164.45-29.86L164.45-29.86L164.45-29.86Q163.90-30.66 162.82-30.66L162.82-30.66L162.82-30.66Q161.73-30.66 160.80-30.24L160.80-30.24L160.80-30.24Q159.87-29.82 158.91-28.42L158.91-28.42L158.91-28.42Q156.54-25.22 155.20-17.79ZM203.46 1.28L203.46 1.28L203.46 1.28Q195.71 1.28 195.71-4.74L195.71-4.74L195.71-4.74Q195.78-6.40 196.29-9.22L196.29-9.22L197.44-15.10L197.44-15.10Q199.17-23.42 199.17-25.28L199.17-25.28L199.17-25.28Q199.17-28.99 196.99-28.99L196.99-28.99L196.99-28.99Q193.34-28.99 191.42-19.46L191.42-19.46L187.65 0L174.78 1.28L181.44-32.70L191.94-33.92L190.91-27.65L190.91-27.65Q193.92-33.92 203.14-33.92L203.14-33.92L203.14-33.92Q207.62-33.92 209.50-32.03L209.50-32.03L209.50-32.03Q211.39-30.14 211.39-25.92L211.39-25.92L211.39-25.92Q211.39-21.95 209.34-12.67L209.34-12.67L209.34-12.67Q208.38-8.51 208.38-6.94L208.38-6.94L208.38-6.94Q208.38-5.38 209.25-4.48L209.25-4.48L209.25-4.48Q210.11-3.58 211.39-3.46L211.39-3.46L211.39-3.46Q210.75-1.28 208.54 0L208.54 0L208.54 0Q206.34 1.28 203.46 1.28ZM217.54-6.40L217.54-6.40L217.54-6.40Q217.54-8.13 218.43-12.48L218.43-12.48L221.82-29.76L218.05-29.76L218.30-31.68L218.30-31.68Q225.98-33.98 233.41-39.62L233.41-39.62L236.48-39.62L234.94-32.64L239.94-32.64L239.36-29.76L234.43-29.76L231.17-12.48L231.17-12.48Q230.34-8.51 230.34-7.17L230.34-7.17L230.34-7.17Q230.34-4.10 233.02-3.46L233.02-3.46L233.02-3.46Q232.38-1.28 230.08 0L230.08 0L230.08 0Q227.78 1.28 224.51 1.28L224.51 1.28L224.51 1.28Q221.25 1.28 219.39-0.77L219.39-0.77L219.39-0.77Q217.54-2.82 217.54-6.40ZM277.76-29.57L277.76-29.57L277.76-29.57Q278.72-31.49 278.72-33.28L278.72-33.28L278.72-33.28Q278.72-35.07 278.53-36.06L278.53-36.06L278.53-36.06Q278.34-37.06 277.89-37.82L277.89-37.82L277.89-37.82Q276.93-39.49 275.01-39.49L275.01-39.49L275.01-39.49Q272.64-39.49 270.72-37.76L270.72-37.76L270.72-37.76Q268.67-35.97 268.67-33.15L268.67-33.15L268.67-33.15Q268.67-31.36 269.92-29.98L269.92-29.98L269.92-29.98Q271.17-28.61 273.09-27.33L273.09-27.33L273.09-27.33Q275.01-26.05 277.18-24.77L277.18-24.77L277.18-24.77Q279.36-23.49 281.28-21.95L281.28-21.95L281.28-21.95Q285.70-18.43 285.70-13.70L285.70-13.70L285.70-13.70Q285.70-10.50 284.00-7.78L284.00-7.78L284.00-7.78Q282.30-5.06 279.49-3.07L279.49-3.07L279.49-3.07Q273.34 1.28 265.22 1.28L265.22 1.28L265.22 1.28Q258.62 1.28 255.23-0.86L255.23-0.86L255.23-0.86Q251.84-3.01 251.84-6.27L251.84-6.27L251.84-6.27Q251.84-12.10 256.38-13.57L256.38-13.57L256.38-13.57Q257.66-14.02 259.62-14.02L259.62-14.02L259.62-14.02Q261.57-14.02 263.81-13.18L263.81-13.18L263.81-13.18Q262.78-10.56 262.78-8.19L262.78-8.19L262.78-8.19Q262.78-3.07 266.43-3.07L266.43-3.07L266.43-3.07Q268.80-3.07 270.75-4.80L270.75-4.80L270.75-4.80Q272.70-6.53 272.70-8.48L272.70-8.48L272.70-8.48Q272.70-10.43 271.46-11.84L271.46-11.84L271.46-11.84Q270.21-13.25 268.35-14.37L268.35-14.37L268.35-14.37Q266.50-15.49 264.35-16.58L264.35-16.58L264.35-16.58Q262.21-17.66 260.35-19.20L260.35-19.20L260.35-19.20Q256.00-22.72 256.00-28.35L256.00-28.35L256.00-28.35Q256.00-32 257.79-34.85L257.79-34.85L257.79-34.85Q259.58-37.70 262.46-39.62L262.46-39.62L262.46-39.62Q268.22-43.52 275.30-43.52L275.30-43.52L275.30-43.52Q282.37-43.52 285.79-41.41L285.79-41.41L285.79-41.41Q289.22-39.30 289.22-35.71L289.22-35.71L289.22-35.71Q289.22-32.58 286.78-30.59L286.78-30.59L286.78-30.59Q284.67-28.93 282.11-28.93L282.11-28.93L282.11-28.93Q279.55-28.93 277.76-29.57ZM320.38-4.38L320.38-4.38L320.38-4.38Q317.70-1.66 314.02-0.19L314.02-0.19L314.02-0.19Q310.34 1.28 306.69 1.28L306.69 1.28L306.69 1.28Q303.04 1.28 301.76 0.64L301.76 0.64L299.78 11.52L286.78 12.80L295.62-32.64L306.05-33.73L305.22-29.31L305.22-29.31Q307.90-33.86 313.47-33.86L313.47-33.86L313.47-33.86Q319.74-33.86 323.07-29.82L323.07-29.82L323.07-29.82Q326.02-26.18 326.02-20.61L326.02-20.61L326.02-20.61Q326.02-15.04 324.54-11.07L324.54-11.07L324.54-11.07Q323.07-7.10 320.38-4.38ZM305.92-22.34L302.53-3.58L302.53-3.58Q303.87-2.43 305.54-2.43L305.54-2.43L305.54-2.43Q307.20-2.43 308.16-3.07L308.16-3.07L308.16-3.07Q309.12-3.71 309.82-4.99L309.82-4.99L309.82-4.99Q311.74-8.45 313.28-18.94L313.28-18.94L313.28-18.94Q313.73-22.02 313.73-25.02L313.73-25.02L313.73-25.02Q313.73-28.03 313.06-28.99L313.06-28.99L313.06-28.99Q312.38-29.95 311.10-29.95L311.10-29.95L311.10-29.95Q307.20-29.95 305.92-22.34L305.92-22.34ZM343.81 1.28L343.81 1.28L343.81 1.28Q329.73 1.28 329.73-11.97L329.73-11.97L329.73-11.97Q329.73-21.38 334.91-27.46L334.91-27.46L334.91-27.46Q340.42-33.92 349.95-33.92L349.95-33.92L349.95-33.92Q356.86-33.92 360.38-30.72L360.38-30.72L360.38-30.72Q363.90-27.52 363.90-20.80L363.90-20.80L363.90-20.80Q363.90-10.56 358.40-4.61L358.40-4.61L358.40-4.61Q353.02 1.28 343.81 1.28ZM345.47-26.56L345.47-26.56L345.47-26.56Q344.70-24.83 344.10-22.24L344.10-22.24L344.10-22.24Q343.49-19.65 342.72-15.55L342.72-15.55L342.72-15.55Q341.95-11.46 341.95-6.40L341.95-6.40L341.95-6.40Q341.95-4.74 342.50-3.65L342.50-3.65L342.50-3.65Q343.04-2.56 344.51-2.56L344.51-2.56L344.51-2.56Q345.98-2.56 346.91-3.26L346.91-3.26L346.91-3.26Q347.84-3.97 348.54-5.63L348.54-5.63L348.54-5.63Q349.82-8.58 350.85-14.05L350.85-14.05L350.85-14.05Q351.87-19.52 351.97-21.89L351.97-21.89L351.97-21.89Q352.06-24.26 352.06-26.02L352.06-26.02L352.06-26.02Q352.06-27.78 351.55-28.93L351.55-28.93L351.55-28.93Q351.04-30.08 349.60-30.08L349.60-30.08L349.60-30.08Q348.16-30.08 347.20-29.18L347.20-29.18L347.20-29.18Q346.24-28.29 345.47-26.56ZM394.75 1.28L394.75 1.28L394.75 1.28Q387.01 1.28 387.01-4.74L387.01-4.74L387.01-4.74Q387.07-6.40 387.58-9.22L387.58-9.22L388.74-15.10L388.74-15.10Q390.46-23.42 390.46-25.28L390.46-25.28L390.46-25.28Q390.46-28.99 388.29-28.99L388.29-28.99L388.29-28.99Q384.64-28.99 382.72-19.46L382.72-19.46L378.94 0L366.08 1.28L372.74-32.70L383.23-33.92L382.21-27.65L382.21-27.65Q385.22-33.92 394.43-33.92L394.43-33.92L394.43-33.92Q398.91-33.92 400.80-32.03L400.80-32.03L400.80-32.03Q402.69-30.14 402.69-25.92L402.69-25.92L402.69-25.92Q402.69-21.95 400.64-12.67L400.64-12.67L400.64-12.67Q399.68-8.51 399.68-6.94L399.68-6.94L399.68-6.94Q399.68-5.38 400.54-4.48L400.54-4.48L400.54-4.48Q401.41-3.58 402.69-3.46L402.69-3.46L402.69-3.46Q402.05-1.28 399.84 0L399.84 0L399.84 0Q397.63 1.28 394.75 1.28ZM426.94-22.46L426.94-22.46L426.94-22.46Q427.84-24.83 427.84-26.88L427.84-26.88L427.84-26.88Q427.84-30.66 424.77-30.66L424.77-30.66L424.77-30.66Q423.17-30.66 421.86-29.22L421.86-29.22L421.86-29.22Q420.54-27.78 420.54-25.98L420.54-25.98L420.54-25.98Q420.54-24.70 421.57-23.68L421.57-23.68L421.57-23.68Q423.04-22.27 426.82-19.97L426.82-19.97L426.82-19.97Q430.59-17.66 432.03-15.78L432.03-15.78L432.03-15.78Q433.47-13.89 433.47-11.30L433.47-11.30L433.47-11.30Q433.47-8.70 432.22-6.34L432.22-6.34L432.22-6.34Q430.98-3.97 428.74-2.30L428.74-2.30L428.74-2.30Q423.94 1.28 416.26 1.28L416.26 1.28L416.26 1.28Q412.10 1.28 408.90-0.90L408.90-0.90L408.90-0.90Q405.70-3.01 405.70-5.50L405.70-5.50L405.70-5.50Q405.70-8 407.52-9.47L407.52-9.47L407.52-9.47Q409.34-10.94 412.03-10.94L412.03-10.94L412.03-10.94Q414.72-10.94 416.38-9.92L416.38-9.92L416.38-9.92Q415.55-7.81 415.55-6.40L415.55-6.40L415.55-6.40Q415.55-2.18 419.14-2.18L419.14-2.18L419.14-2.18Q420.67-2.18 421.70-3.14L421.70-3.14L421.70-3.14Q422.72-4.10 422.72-5.76L422.72-5.76L422.72-5.76Q422.72-9.02 417.22-12.48L417.22-12.48L417.22-12.48Q412.74-15.42 411.71-16.58L411.71-16.58L411.71-16.58Q409.98-18.62 409.98-21.18L409.98-21.18L409.98-21.18Q409.98-23.74 411.20-26.18L411.20-26.18L411.20-26.18Q412.42-28.61 414.66-30.34L414.66-30.34L414.66-30.34Q419.33-33.92 427.46-33.92L427.46-33.92L427.46-33.92Q431.62-33.92 434.08-32.26L434.08-32.26L434.08-32.26Q436.54-30.59 436.54-27.78L436.54-27.78L436.54-27.78Q436.54-24.96 434.85-23.36L434.85-23.36L434.85-23.36Q433.15-21.76 430.08-21.76L430.08-21.76L430.08-21.76Q427.97-21.76 426.94-22.46ZM452.86 1.28L452.86 1.28L452.86 1.28Q438.78 1.28 438.78-11.97L438.78-11.97L438.78-11.97Q438.78-21.38 443.97-27.46L443.97-27.46L443.97-27.46Q449.47-33.92 459.01-33.92L459.01-33.92L459.01-33.92Q465.92-33.92 469.44-30.72L469.44-30.72L469.44-30.72Q472.96-27.52 472.96-20.80L472.96-20.80L472.96-20.80Q472.96-10.56 467.46-4.61L467.46-4.61L467.46-4.61Q462.08 1.28 452.86 1.28ZM454.53-26.56L454.53-26.56L454.53-26.56Q453.76-24.83 453.15-22.24L453.15-22.24L453.15-22.24Q452.54-19.65 451.78-15.55L451.78-15.55L451.78-15.55Q451.01-11.46 451.01-6.40L451.01-6.40L451.01-6.40Q451.01-4.74 451.55-3.65L451.55-3.65L451.55-3.65Q452.10-2.56 453.57-2.56L453.57-2.56L453.57-2.56Q455.04-2.56 455.97-3.26L455.97-3.26L455.97-3.26Q456.90-3.97 457.60-5.63L457.60-5.63L457.60-5.63Q458.88-8.58 459.90-14.05L459.90-14.05L459.90-14.05Q460.93-19.52 461.02-21.89L461.02-21.89L461.02-21.89Q461.12-24.26 461.12-26.02L461.12-26.02L461.12-26.02Q461.12-27.78 460.61-28.93L460.61-28.93L460.61-28.93Q460.10-30.08 458.66-30.08L458.66-30.08L458.66-30.08Q457.22-30.08 456.26-29.18L456.26-29.18L456.26-29.18Q455.30-28.29 454.53-26.56ZM496.77-17.98L496.77-17.98L496.77-17.98Q499.07-22.08 499.07-26.24L499.07-26.24L499.07-26.24Q499.07-28.99 497.09-28.99L497.09-28.99L497.09-28.99Q495.55-28.99 493.95-26.37L493.95-26.37L493.95-26.37Q492.29-23.74 491.78-20.35L491.78-20.35L488.45 0L475.20 1.28L481.73-32.64L492.29-33.92L491.14-27.46L491.14-27.46Q494.27-33.92 501.31-33.92L501.31-33.92L501.31-33.92Q505.02-33.92 507.04-32L507.04-32L507.04-32Q509.06-30.08 509.06-26.14L509.06-26.14L509.06-26.14Q509.06-22.21 506.46-19.71L506.46-19.71L506.46-19.71Q503.87-17.22 499.46-17.22L499.46-17.22L499.46-17.22Q497.54-17.22 496.77-17.98Z" fill="url(#editing-shiny-gradient2)"></path></g></g><style>text {
  font-size: 64px;
  font-family: Arial Black;
  dominant-baseline: central;
  text-anchor: middle;
}</style></svg>