<svg width="298.0624267578125px" height="146px" xmlns="http://www.w3.org/2000/svg" viewBox="100.96878662109376 2 298.0624267578125 146" style="background: rgba(0, 0, 0, 0);" preserveAspectRatio="xMidYMid"><defs><linearGradient id="editing-outline-gradient" x1="-0.41354545764260087" x2="1.4135454576426008" y1="0.09326335692419985" y2="0.9067366430758002"><stop offset="0" stop-color="#ee4208"></stop><stop offset="1" stop-color="#4139ff"></stop></linearGradient><filter id="editing-outline" x="-100%" y="-100%" width="300%" height="300%"><feMorphology in="SourceGraphic" operator="dilate" radius="1" result="outline"></feMorphology><feComposite operator="out" in="outline" in2="SourceAlpha"></feComposite></filter></defs><g filter="url(#editing-outline)"><g transform="translate(149.1599801182747, 109.87999725341797)"><path d="M53.28-33.20L53.28-33.20L53.28-33.20Q53.28 0.88 16.32 0.88L16.32 0.88L16.32 0.88Q10.40 0.88 0.64-0.56L0.64-0.56L9.60-47.84L9.60-47.84Q10.24-51.04 10.64-52.88L10.64-52.88L10.64-52.88Q22.80-53.76 28.20-53.76L28.20-53.76L28.20-53.76Q33.60-53.76 38.56-52.64L38.56-52.64L38.56-52.64Q43.52-51.52 46.80-49.04L46.80-49.04L46.80-49.04Q53.28-44.16 53.28-33.20ZM36.80-36.16L36.80-36.16L36.80-36.16Q36.80-48.08 28.24-48.08L28.24-48.08L27.44-48.08L27.44-48.08Q27.04-48.08 26.64-48L26.64-48L18.40-5.04L18.40-5.04Q18.72-4.88 19.04-4.88L19.04-4.88L19.68-4.88L19.68-4.88Q22.64-4.88 25.72-6.72L25.72-6.72L25.72-6.72Q28.80-8.56 31.20-12.32L31.20-12.32L31.20-12.32Q36.80-21.04 36.80-36.16ZM60.84-2.40L60.84-2.40L60.84-2.40Q58.96-4.48 58.12-7.76L58.12-7.76L58.12-7.76Q57.28-11.04 57.28-16.40L57.28-16.40L57.28-16.40Q57.28-21.76 59.12-26.64L59.12-26.64L59.12-26.64Q60.96-31.52 64.32-35.04L64.32-35.04L64.32-35.04Q71.20-42.40 82.56-42.40L82.56-42.40L82.56-42.40Q86.64-42.40 89.60-41.04L89.60-41.04L103.28-42.40L97.36-11.20L97.36-11.20Q97.12-10.24 97.12-8.48L97.12-8.48L97.12-8.48Q97.12-6.72 98.20-5.60L98.20-5.60L98.20-5.60Q99.28-4.48 100.88-4.32L100.88-4.32L100.88-4.32Q100.08-1.60 97.16 0L97.16 0L97.16 0Q94.24 1.60 90.96 1.60L90.96 1.60L90.96 1.60Q87.68 1.60 85.48 0.36L85.48 0.36L85.48 0.36Q83.28-0.88 82.64-2.96L82.64-2.96L82.64-2.96Q81.36-0.96 78.64 0.32L78.64 0.32L78.64 0.32Q75.92 1.60 72.28 1.60L72.28 1.60L72.28 1.60Q68.64 1.60 65.68 0.64L65.68 0.64L65.68 0.64Q62.72-0.32 60.84-2.40ZM77.72-34.88L77.72-34.88L77.72-34.88Q76.80-33.44 76-31L76-31L76-31Q75.20-28.56 73.88-22.04L73.88-22.04L73.88-22.04Q72.56-15.52 72.56-10.88L72.56-10.88L72.56-10.88Q72.56-6.24 73.28-4.88L73.28-4.88L73.28-4.88Q74-3.52 75.28-3.52L75.28-3.52L75.28-3.52Q77.84-3.52 79.72-5.96L79.72-5.96L79.72-5.96Q81.60-8.40 82.32-12.72L82.32-12.72L86.56-36.16L86.56-36.16Q84.88-37.60 82.92-37.60L82.92-37.60L82.92-37.60Q80.96-37.60 79.80-36.96L79.80-36.96L79.80-36.96Q78.64-36.32 77.72-34.88ZM144.88-5.48L144.88-5.48L144.88-5.48Q141.52-2.08 136.92-0.24L136.92-0.24L136.92-0.24Q132.32 1.60 127.76 1.60L127.76 1.60L127.76 1.60Q123.20 1.60 121.60 0.80L121.60 0.80L119.12 14.40L102.88 16L113.92-40.80L126.96-42.16L125.92-36.64L125.92-36.64Q129.28-42.32 136.24-42.32L136.24-42.32L136.24-42.32Q144.08-42.32 148.24-37.28L148.24-37.28L148.24-37.28Q151.92-32.72 151.92-25.76L151.92-25.76L151.92-25.76Q151.92-18.80 150.08-13.84L150.08-13.84L150.08-13.84Q148.24-8.88 144.88-5.48ZM126.80-27.92L122.56-4.48L122.56-4.48Q124.24-3.04 126.32-3.04L126.32-3.04L126.32-3.04Q128.40-3.04 129.60-3.84L129.60-3.84L129.60-3.84Q130.80-4.64 131.68-6.24L131.68-6.24L131.68-6.24Q134.08-10.56 136-23.68L136-23.68L136-23.68Q136.56-27.52 136.56-31.28L136.56-31.28L136.56-31.28Q136.56-35.04 135.72-36.24L135.72-36.24L135.72-36.24Q134.88-37.44 133.28-37.44L133.28-37.44L133.28-37.44Q128.40-37.44 126.80-27.92L126.80-27.92ZM194-5.48L194-5.48L194-5.48Q190.64-2.08 186.04-0.24L186.04-0.24L186.04-0.24Q181.44 1.60 176.88 1.60L176.88 1.60L176.88 1.60Q172.32 1.60 170.72 0.80L170.72 0.80L168.24 14.40L152 16L163.04-40.80L176.08-42.16L175.04-36.64L175.04-36.64Q178.40-42.32 185.36-42.32L185.36-42.32L185.36-42.32Q193.20-42.32 197.36-37.28L197.36-37.28L197.36-37.28Q201.04-32.72 201.04-25.76L201.04-25.76L201.04-25.76Q201.04-18.80 199.20-13.84L199.20-13.84L199.20-13.84Q197.36-8.88 194-5.48ZM175.92-27.92L171.68-4.48L171.68-4.48Q173.36-3.04 175.44-3.04L175.44-3.04L175.44-3.04Q177.52-3.04 178.72-3.84L178.72-3.84L178.72-3.84Q179.92-4.64 180.80-6.24L180.80-6.24L180.80-6.24Q183.20-10.56 185.12-23.68L185.12-23.68L185.12-23.68Q185.68-27.52 185.68-31.28L185.68-31.28L185.68-31.28Q185.68-35.04 184.84-36.24L184.84-36.24L184.84-36.24Q184-37.44 182.40-37.44L182.40-37.44L182.40-37.44Q177.52-37.44 175.92-27.92L175.92-27.92Z" fill="url(#editing-outline-gradient)"></path></g></g><style>text {
  font-size: 64px;
  font-family: Arial Black;
  dominant-baseline: central;
  text-anchor: middle;
}</style></svg>